<?xml version="1.0" encoding="UTF-8"?>
<!-- Generator: Adobe Illustrator 27.2.0, SVG Export Plug-In . SVG Version: 6.00 Build 0)  -->
<svg xmlns="http://www.w3.org/2000/svg" xmlns:xlink="http://www.w3.org/1999/xlink" version="1.1" id="Lager_1" x="0px" y="0px" viewBox="0 0 799.8 105.5" style="enable-background:new 0 0 799.8 105.5;" xml:space="preserve">
<style type="text/css">
	.st0{fill:#E27E3B;}
</style>
<g>
	<path class="st0" d="M139.1,32.1c0.7,1.3,1.5,2.9,2.5,4.9c0.9,1.9,1.9,4,2.9,6.3c1,2.2,2,4.5,3,6.9c1,2.3,1.9,4.6,2.8,6.6   c0.9-2.1,1.8-4.3,2.8-6.6c1-2.3,2-4.6,3-6.9c1-2.2,2-4.3,2.9-6.3c0.9-1.9,1.8-3.5,2.5-4.9h8.5c0.4,2.7,0.8,5.8,1.1,9.2   c0.3,3.4,0.6,6.9,0.9,10.6c0.3,3.7,0.5,7.4,0.7,11.1c0.2,3.7,0.4,7.2,0.6,10.4h-9.1c-0.1-4-0.3-8.4-0.5-13.1   c-0.2-4.7-0.5-9.5-0.9-14.3c-0.7,1.7-1.5,3.5-2.4,5.5c-0.9,2-1.7,4.1-2.6,6.1c-0.9,2-1.7,4-2.5,5.8c-0.8,1.8-1.5,3.4-2,4.7h-6.5   c-0.6-1.3-1.2-2.9-2-4.7c-0.8-1.8-1.6-3.8-2.5-5.8c-0.9-2-1.7-4.1-2.6-6.1c-0.9-2-1.7-3.9-2.4-5.5c-0.4,4.8-0.7,9.6-0.9,14.3   c-0.2,4.7-0.4,9.1-0.5,13.1h-9.1c0.2-3.3,0.3-6.7,0.6-10.4c0.2-3.7,0.5-7.4,0.7-11.1c0.3-3.7,0.6-7.2,0.9-10.6   c0.3-3.4,0.7-6.5,1.1-9.2H139.1z"></path>
	<path class="st0" d="M204.2,59.5c0,2-0.2,3.9-0.7,5.7c-0.5,1.8-1.3,3.3-2.4,4.7c-1.1,1.3-2.7,2.4-4.6,3.2c-1.9,0.8-4.4,1.2-7.3,1.2   c-2.7,0-5-0.3-7-1c-1.9-0.7-3.6-1.4-4.8-2.3l3.1-7.2c1.2,0.7,2.4,1.3,3.7,1.8c1.3,0.5,2.7,0.8,4.3,0.8c2.3,0,3.9-0.6,4.9-1.7   c1-1.1,1.5-3,1.5-5.6v-27h9.3V59.5z"></path>
	<path class="st0" d="M227.4,73.4V32.1h27.9v7.8h-18.6V48h16.5v7.6h-16.5v10h20v7.8H227.4z"></path>
	<path class="st0" d="M291.2,65.5v8h-27.6V32.1h9.3v33.3H291.2z"></path>
	<path class="st0" d="M297.1,32.1h9.3v41.3h-9.3V32.1z"></path>
	<path class="st0" d="M343.7,73.4c-2.7-4.7-5.5-9.4-8.6-14c-3.1-4.6-6.4-9-9.9-13.1v27.1H316V32.1h7.6c1.3,1.3,2.8,2.9,4.4,4.8   s3.2,3.9,4.9,6.1c1.6,2.2,3.3,4.4,4.9,6.7c1.6,2.3,3.2,4.6,4.6,6.7V32.1h9.2v41.3H343.7z"></path>
	<path class="st0" d="M372.3,66.3c1.3,0,2.4-0.1,3.2-0.3c0.9-0.2,1.5-0.5,2.1-0.9c0.5-0.4,0.9-0.8,1.1-1.3c0.2-0.5,0.3-1.1,0.3-1.7   c0-1.4-0.6-2.5-1.9-3.4c-1.3-0.9-3.5-1.9-6.6-2.9c-1.4-0.5-2.7-1-4.1-1.6c-1.4-0.6-2.6-1.4-3.6-2.3c-1.1-0.9-1.9-2.1-2.6-3.4   c-0.7-1.3-1-3-1-4.9s0.4-3.6,1.1-5.2c0.7-1.5,1.7-2.8,3-3.9c1.3-1.1,2.9-1.9,4.8-2.5c1.9-0.6,4-0.9,6.3-0.9c2.8,0,5.2,0.3,7.2,0.9   c2,0.6,3.7,1.3,5,2l-2.7,7.3c-1.2-0.6-2.4-1.1-3.8-1.6c-1.4-0.5-3.1-0.7-5.1-0.7c-2.2,0-3.8,0.3-4.8,0.9c-1,0.6-1.5,1.6-1.5,2.8   c0,0.8,0.2,1.4,0.5,1.9c0.4,0.5,0.9,1,1.5,1.4c0.7,0.4,1.4,0.8,2.3,1.1c0.9,0.3,1.8,0.7,2.8,1c2.1,0.8,4,1.6,5.6,2.4   c1.6,0.8,2.9,1.7,4,2.7c1.1,1,1.8,2.2,2.4,3.6c0.5,1.4,0.8,3.1,0.8,5.1c0,3.9-1.4,6.8-4.1,9c-2.7,2.1-6.8,3.2-12.2,3.2   c-1.8,0-3.5-0.1-4.9-0.3c-1.5-0.2-2.8-0.5-3.9-0.8c-1.1-0.3-2.1-0.7-2.9-1c-0.8-0.4-1.5-0.7-2.1-1l2.6-7.4c1.2,0.7,2.8,1.3,4.6,1.8   C367.5,66.1,369.7,66.3,372.3,66.3z"></path>
	<path class="st0" d="M425.2,32.1V40h-12.5v33.4h-9.3V40H391v-7.9H425.2z"></path>
	<path class="st0" d="M454,73.4c-0.5-1.4-1-2.9-1.5-4.4s-1.1-3-1.6-4.5h-16.1c-0.5,1.5-1,3-1.6,4.5c-0.5,1.5-1,3-1.5,4.4h-9.7   c1.6-4.5,3-8.6,4.4-12.3c1.4-3.8,2.8-7.3,4.1-10.7s2.7-6.5,3.9-9.5c1.3-3,2.6-5.9,4-8.8h8.8c1.4,2.9,2.7,5.8,4,8.8   c1.3,3,2.6,6.2,4,9.5s2.7,6.9,4.1,10.7c1.4,3.8,2.9,7.9,4.4,12.3H454z M442.8,41.5c-0.2,0.6-0.5,1.4-0.9,2.4   c-0.4,1-0.9,2.2-1.4,3.6c-0.5,1.4-1.1,2.8-1.7,4.5c-0.6,1.6-1.3,3.3-1.9,5.1h11.8c-0.6-1.8-1.2-3.5-1.8-5.1   c-0.6-1.6-1.2-3.1-1.7-4.5c-0.5-1.4-1-2.5-1.4-3.6C443.4,42.9,443.1,42.1,442.8,41.5z"></path>
	<path class="st0" d="M496.9,65.5v8h-27.6V32.1h9.3v33.3H496.9z"></path>
	<path class="st0" d="M530.5,65.5v8h-27.6V32.1h9.3v33.3H530.5z"></path>
	<path class="st0" d="M566,73.4c-0.5-1.4-1-2.9-1.5-4.4s-1.1-3-1.6-4.5h-16.1c-0.5,1.5-1,3-1.6,4.5c-0.5,1.5-1,3-1.5,4.4h-9.7   c1.6-4.5,3-8.6,4.4-12.3c1.4-3.8,2.8-7.3,4.1-10.7s2.7-6.5,3.9-9.5c1.3-3,2.6-5.9,4-8.8h8.8c1.4,2.9,2.7,5.8,4,8.8   c1.3,3,2.6,6.2,4,9.5s2.7,6.9,4.1,10.7c1.4,3.8,2.9,7.9,4.4,12.3H566z M554.8,41.5c-0.2,0.6-0.5,1.4-0.9,2.4   c-0.4,1-0.9,2.2-1.4,3.6c-0.5,1.4-1.1,2.8-1.7,4.5c-0.6,1.6-1.3,3.3-1.9,5.1h11.8c-0.6-1.8-1.2-3.5-1.8-5.1   c-0.6-1.6-1.2-3.1-1.7-4.5c-0.5-1.4-1-2.5-1.4-3.6C555.4,42.9,555.1,42.1,554.8,41.5z"></path>
	<path class="st0" d="M607,32.1V40h-12.5v33.4h-9.3V40h-12.5v-7.9H607z"></path>
	<path class="st0" d="M613,32.1h9.3v41.3H613V32.1z"></path>
	<path class="st0" d="M671.2,52.8c0,3.5-0.5,6.6-1.6,9.3c-1.1,2.7-2.5,4.9-4.3,6.7c-1.8,1.8-4,3.2-6.5,4.1c-2.5,0.9-5.2,1.4-8.1,1.4   c-2.8,0-5.5-0.5-8-1.4c-2.5-0.9-4.7-2.3-6.6-4.1c-1.9-1.8-3.3-4.1-4.4-6.7c-1.1-2.7-1.6-5.8-1.6-9.3c0-3.5,0.6-6.6,1.7-9.3   c1.1-2.7,2.6-4.9,4.5-6.8c1.9-1.8,4.1-3.2,6.6-4.1c2.5-0.9,5.1-1.4,7.8-1.4c2.8,0,5.5,0.5,8,1.4c2.5,0.9,4.7,2.3,6.6,4.1   c1.9,1.8,3.3,4.1,4.4,6.8C670.7,46.1,671.2,49.2,671.2,52.8z M639.7,52.8c0,2,0.2,3.9,0.7,5.5c0.5,1.6,1.2,3,2.1,4.2   c0.9,1.2,2.1,2.1,3.4,2.7c1.4,0.6,2.9,1,4.7,1c1.7,0,3.2-0.3,4.6-1c1.4-0.6,2.5-1.5,3.5-2.7c0.9-1.2,1.6-2.6,2.1-4.2   c0.5-1.6,0.7-3.5,0.7-5.5s-0.2-3.9-0.7-5.5c-0.5-1.6-1.2-3.1-2.1-4.2c-0.9-1.2-2.1-2.1-3.5-2.7c-1.4-0.6-2.9-1-4.6-1   c-1.8,0-3.3,0.3-4.7,1c-1.4,0.7-2.5,1.6-3.4,2.7c-0.9,1.2-1.7,2.6-2.1,4.2C639.9,48.9,639.7,50.8,639.7,52.8z"></path>
	<path class="st0" d="M706.7,73.4c-2.7-4.7-5.5-9.4-8.6-14c-3.1-4.6-6.4-9-9.9-13.1v27.1h-9.2V32.1h7.6c1.3,1.3,2.8,2.9,4.4,4.8   s3.2,3.9,4.9,6.1c1.6,2.2,3.3,4.4,4.9,6.7c1.6,2.3,3.2,4.6,4.6,6.7V32.1h9.2v41.3H706.7z"></path>
	<path class="st0" d="M724,73.4V32.1h27.9v7.8h-18.6V48h16.5v7.6h-16.5v10h20v7.8H724z"></path>
	<path class="st0" d="M772.3,31.6c6.2,0,11,1.1,14.3,3.3c3.3,2.2,5,5.6,5,10.3c0,2.9-0.7,5.3-2,7.1c-1.3,1.8-3.2,3.2-5.8,4.3   c0.8,1,1.7,2.2,2.6,3.5c0.9,1.3,1.8,2.7,2.7,4.2c0.9,1.5,1.8,3,2.6,4.5c0.8,1.6,1.6,3.1,2.3,4.6h-10.4c-0.8-1.4-1.5-2.7-2.3-4.1   c-0.8-1.4-1.6-2.7-2.4-4.1s-1.6-2.6-2.4-3.7c-0.8-1.2-1.6-2.2-2.4-3.2h-4.6v15.1h-9.3V32.7c2-0.4,4.1-0.7,6.3-0.8   C768.6,31.7,770.6,31.6,772.3,31.6z M772.8,39.6c-0.7,0-1.3,0-1.8,0.1c-0.5,0-1,0.1-1.5,0.1V51h2.6c3.5,0,6-0.4,7.5-1.3   c1.5-0.9,2.3-2.4,2.3-4.5c0-2-0.8-3.5-2.3-4.3C778,40,775.8,39.6,772.8,39.6z"></path>
</g>
<path class="st0" d="M52.3,13.8c13.6,0,25.6,7,32.6,17.6H63.4v8.8h23v21.6h3.9h-3.8c0,0.4-0.2,0.7-0.5,1.1c-0.3,0.4-0.8,0.8-1.4,1.1  c-0.6,0.4-1.4,0.6-2.3,0.9c-0.9,0.2-1.8,0.4-2.9,0.4c-1,0-1.9-0.1-2.8-0.3c-0.8-0.2-1.6-0.5-2.2-0.8c-0.6-0.3-1.1-0.7-1.5-1.1  c-0.4-0.4-0.5-0.8-0.6-1.1h0.1v-4.4h-8.8v4.4c0,1.7,0.4,3.3,1.2,4.8c0.8,1.5,1.9,2.7,3.4,3.8c1.4,1.1,3.1,2,5,2.6  c1.9,0.6,4,0.9,6.2,0.9c2.2,0,4.3-0.3,6.2-0.9c-6.9,11.1-19.1,18.5-33.2,18.5c-14.6,0-27.4-8.1-34-20V46.2l9.9,13h4.4v-0.1l9.9-12.9  V74h8.8V31.9h-8.8L30.4,47.6L18.9,32.7C25.8,21.4,38.2,13.8,52.3,13.8L52.3,13.8z M52.3,13.8"></path>
<path class="st0" d="M101.3,32.2c-2.7-6.3-6.5-11.9-11.3-16.8c-4.8-4.8-10.5-8.6-16.8-11.3C66.8,1.4,59.8,0,52.7,0s-14,1.4-20.5,4.1  c-6.3,2.7-11.9,6.5-16.8,11.3l0,0c-4.8,4.8-8.6,10.5-11.3,16.8C1.4,38.7,0,45.6,0,52.7s1.4,14,4.1,20.5c2.7,6.3,6.5,11.9,11.3,16.8  c4.8,4.8,10.5,8.6,16.8,11.3c6.5,2.8,13.4,4.1,20.5,4.1c7.1,0,14-1.4,20.5-4.1C79.5,98.7,85.2,94.9,90,90  c4.8-4.8,8.6-10.5,11.3-16.8c2.8-6.5,4.1-13.4,4.1-20.5S104.1,38.7,101.3,32.2z M52.7,5.4c6.4,0,12.6,1.3,18.4,3.7  c5.6,2.4,10.7,5.8,15,10.1c4.3,4.3,7.8,9.4,10.1,15c2.5,5.8,3.7,12,3.7,18.4s-1.2,12.6-3.7,18.4c-2.4,5.6-5.8,10.7-10.1,15  c-4.3,4.3-9.4,7.8-15,10.1c-5.8,2.5-12,3.7-18.4,3.7c-6.4,0-12.6-1.3-18.4-3.7c-5.6-2.4-10.7-5.8-15-10.1c-4.3-4.3-7.8-9.4-10.1-15  c-2.5-5.8-3.7-12-3.7-18.4c0-6.4,1.3-12.6,3.7-18.4c2.4-5.6,5.8-10.7,10.1-15c4.3-4.3,9.4-7.8,15-10.1C40.2,6.7,46.3,5.4,52.7,5.4z"></path>
</svg>
